# xmcd
#
# Track frame offsets: 
#        150
#        17412
#        37645
#        62604
#        83006
#        99611
#        118908
#        135382
#        151607
#        166582
#        180180
#        196584
#        213731
#        233522
#        250537
#        264830
#        289935
#        305448
#        323301
#        343737
#
# Disc length: 4763 seconds
#
# Revision: 0
# Processed by: cddbd v1.5.2PL0 Copyright (c) Steve Scherf et al.
# Submitted via: ExactAudioCopy v0.99pb4
#
DISCID=e8129914
DTITLE=Various Artist - I Love Retro - CD 1
DYEAR=2012
DGENRE=Acid
TTITLE0=Energy 52 - Café Del Mar
TTITLE1=C.M. - Dream Universe
TTITLE2=RMB - Love Is An Ocean
TTITLE3=Komakino - Man On Mars
TTITLE4=Push - Universal Nation (The Real Anthem)
TTITLE5=Delerium Feat. Sarah McLachlan - Silence (Sanctuary Mix Edit)
TTITLE6=Three Drives On A Vinyl - Greece 2000
TTITLE7=Freefall Feat. Jan Johnston - Skydive
TTITLE8=Derb - Derb (Derbus)
TTITLE9=Plexus - Cactus Rhythm
TTITLE10=World Party II - Forget-It!
TTITLE11=ToneKing - Pneu
TTITLE12=Green Velvet - Flash
TTITLE13=Jaydee - Plastic Dreams
TTITLE14=Lambda - Hold On Tight
TTITLE15=Peyote - Alcatraz
TTITLE16=Zombie Nation - Kernkraft 400
TTITLE17=Virtual Zone - Virtual Zone
TTITLE18=Human Resource - Dominator
TTITLE19=Robert Armani - Hit Hard
EXTD=
EXTT0=
EXTT1=
EXTT2=
EXTT3=
EXTT4=
EXTT5=
EXTT6=
EXTT7=
EXTT8=
EXTT9=
EXTT10=
EXTT11=
EXTT12=
EXTT13=
EXTT14=
EXTT15=
EXTT16=
EXTT17=
EXTT18=
EXTT19=
PLAYORDER=
